<svg width="76" height="72" viewBox="0 0 76 72" fill="none" xmlns="http://www.w3.org/2000/svg">
<ellipse cx="38" cy="35.791" rx="38" ry="35.7313" fill="#E4E4E4"/>
<path d="M42.6875 42.4025C42.2563 42.4025 41.9062 42.7317 41.9062 43.1371C41.9062 43.5426 42.2563 43.8717 42.6875 43.8717C43.1187 43.8717 43.4688 43.5426 43.4688 43.1371C43.4688 42.7317 43.1187 42.4025 42.6875 42.4025Z" fill="black"/>
<path d="M54.0938 16.9851H21.9062C19.7523 16.9851 18 18.6328 18 20.6581V43.1371C18 45.1625 19.7523 46.8102 21.9062 46.8102H34.0938V50.1894H33.3125C32.2694 50.1894 31.2889 50.5716 30.5507 51.2655C29.8127 51.9596 29.4062 52.8816 29.4062 53.8624C29.4062 54.2682 29.756 54.597 30.1875 54.597H45.8125C46.244 54.597 46.5938 54.2682 46.5938 53.8624C46.5938 51.8371 44.8414 50.1894 42.6875 50.1894H41.9062V46.8102H54.0938C56.2477 46.8102 58 45.1625 58 43.1371V20.6581C58 18.6328 56.2477 16.9851 54.0938 16.9851ZM21.9062 18.4543H54.0938C55.3862 18.4543 56.4375 19.4429 56.4375 20.6581V39.4641H52.8438V22.5681C52.8438 22.1623 52.494 21.8335 52.0625 21.8335H45.8125C45.381 21.8335 45.0312 22.1623 45.0312 22.5681V39.4641H41.1207C41.1125 38.7042 41.0914 37.9553 41.0579 37.2287C40.9211 34.2369 40.6096 32.2328 40.4475 31.3513C42.0594 30.2353 42.4995 28.1669 41.5141 26.5599L38.8063 22.15C38.6665 21.9227 38.4086 21.7827 38.1297 21.7827C37.8505 21.7827 37.5926 21.9227 37.4531 22.15L34.7441 26.5602C33.8151 28.0754 34.1444 30.0379 35.6038 31.196C35.4347 32.075 35.0935 34.1508 34.9452 37.2273C34.9101 37.9616 34.8878 38.7111 34.8793 39.4641H30.9688V28.445C30.9688 28.3285 30.9395 28.2223 30.8915 28.1279C30.8894 28.1241 30.8882 28.1201 30.8864 28.1164L27.7614 22.2395C27.6289 21.9907 27.3585 21.8335 27.0625 21.8335C26.7665 21.8335 26.4961 21.9907 26.3636 22.2395L23.2386 28.1164C23.2368 28.1201 23.2356 28.1241 23.2338 28.1279C23.1849 28.2231 23.1562 28.331 23.1562 28.445V39.4641H19.5625V20.6581C19.5625 19.4429 20.6138 18.4543 21.9062 18.4543V18.4543ZM46.5938 39.4641V23.3027H51.2812V24.7719H50.5C50.0685 24.7719 49.7188 25.1008 49.7188 25.5065C49.7188 25.9123 50.0685 26.2411 50.5 26.2411H51.2812V28.445H50.5C50.0685 28.445 49.7188 28.7738 49.7188 29.1796C49.7188 29.5853 50.0685 29.9142 50.5 29.9142H51.2812V32.118H50.5C50.0685 32.118 49.7188 32.4469 49.7188 32.8526C49.7188 33.2584 50.0685 33.5872 50.5 33.5872H51.2812V36.5257H50.5C50.0685 36.5257 49.7188 36.8545 49.7188 37.2603C49.7188 37.666 50.0685 37.9949 50.5 37.9949H51.2812V39.4641H46.5938ZM38.1297 32.0672C38.4135 32.0672 38.6961 32.0365 38.9726 31.9791C39.1176 32.8529 39.3306 34.399 39.4566 36.5257H36.5486C36.6807 34.4005 36.9038 32.8302 37.0579 31.9269C37.404 32.0196 37.7644 32.0672 38.1297 32.0672ZM38.1297 30.598C36.3441 30.598 35.1927 28.7707 36.0975 27.2946L38.1297 23.9865L40.1606 27.2943C41.0621 28.7643 39.9266 30.598 38.1297 30.598ZM36.4769 37.9949H39.5253C39.5417 38.4775 39.553 38.9685 39.5585 39.4641H36.4418C36.4476 38.9717 36.4595 38.4807 36.4769 37.9949ZM27.8438 39.4641V29.1796H29.4062V39.4641H27.8438ZM24.7188 39.4641V29.1796H26.2812V39.4641H24.7188ZM25.2015 27.7104L27.0625 24.2106L28.9235 27.7104H25.2015ZM44.8973 53.1278H31.1018C31.2166 52.8216 31.4039 52.541 31.6554 52.3042C32.0985 51.8879 32.6869 51.6586 33.3125 51.6586H42.6875C43.7062 51.6586 44.575 52.2727 44.8973 53.1278ZM40.3438 50.1894H35.6562V46.8102H40.3438V50.1894ZM54.0938 45.341H21.9062C20.6138 45.341 19.5625 44.3524 19.5625 43.1371V40.9333H56.4375V43.1371C56.4375 44.3524 55.3862 45.341 54.0938 45.341Z" fill="black"/>
<path d="M39.5625 42.4025H34.875C34.4435 42.4025 34.0938 42.7314 34.0938 43.1371C34.0938 43.5429 34.4435 43.8717 34.875 43.8717H39.5625C39.994 43.8717 40.3438 43.5429 40.3438 43.1371C40.3438 42.7314 39.994 42.4025 39.5625 42.4025Z" fill="black"/>
</svg>
