<svg width="76" height="72" viewBox="0 0 76 72" fill="none" xmlns="http://www.w3.org/2000/svg">
<ellipse cx="38" cy="35.791" rx="38" ry="35.7313" fill="#E4E4E4"/>
<path d="M26.8611 49.1287H22.1116C21.6801 49.1287 21.3303 49.4576 21.3303 49.8633C21.3303 50.2691 21.6801 50.5979 22.1116 50.5979H26.861C27.2925 50.5979 27.6423 50.2691 27.6423 49.8633C27.6423 49.4576 27.2925 49.1287 26.8611 49.1287Z" fill="black"/>
<path d="M31.1001 49.5826C30.9723 49.2892 30.6447 49.1034 30.3089 49.1319C29.9859 49.1595 29.7087 49.3791 29.6243 49.6733C29.5406 49.9654 29.6634 50.2842 29.9242 50.4606C30.1882 50.639 30.556 50.6414 30.8232 50.4675C31.1218 50.2732 31.2399 49.8981 31.1001 49.5826V49.5826Z" fill="black"/>
<path d="M30.393 45.4489H20.752C20.3205 45.4489 19.9707 45.7777 19.9707 46.1835C19.9707 46.5892 20.3205 46.9181 20.752 46.9181H30.393C30.8245 46.9181 31.1742 46.5892 31.1742 46.1835C31.1742 45.7777 30.8245 45.4489 30.393 45.4489Z" fill="black"/>
<path d="M27.3893 42.5035C27.3893 42.0978 27.0395 41.7689 26.608 41.7689H19.7812C19.3498 41.7689 19 42.0978 19 42.5035C19 42.9093 19.3498 43.2381 19.7812 43.2381H26.608C27.0395 43.2381 27.3893 42.9093 27.3893 42.5035Z" fill="black"/>
<path d="M58.0658 45.3579C57.9337 41.1933 54.2896 37.8436 49.8292 37.8436H45.8651L43.6102 25.1103C43.492 24.3446 43.0591 23.6746 42.3904 23.2229C41.7192 22.7695 40.9019 22.5981 40.0895 22.7401C38.4331 23.0298 37.9772 23.0918 37.8529 23.103C37.6228 23.1237 37.4142 23.2392 37.2834 23.4184C37.1525 23.5976 37.1128 23.8221 37.1749 24.0315L37.369 24.6863C35.95 24.5266 34.6506 23.8002 33.8256 22.6634L33.3482 22.0067C33.2227 21.8339 33.0246 21.7197 32.8039 21.6927C32.5833 21.6656 32.3608 21.7286 32.1924 21.8654L28.4565 24.9012C28.0379 25.1967 27.6334 25.582 27.2539 26.0464C27.2537 26.0466 27.2535 26.0469 27.2533 26.0471C26.1935 27.3411 25.2766 29.28 24.7495 31.3182C24.1711 31.3688 23.6121 31.6209 23.2042 32.0653L22.2996 33.0509C21.8928 33.4941 21.6945 34.0596 21.741 34.6433C21.7876 35.227 22.0734 35.7583 22.5459 36.1395L37.9342 48.5538C38.1951 48.7601 38.4671 48.9519 38.7485 49.1287H33.9247C33.4932 49.1287 33.1435 49.4576 33.1435 49.8633C33.1435 50.2691 33.4932 50.5979 33.9247 50.5979H56.6743C57.9567 50.5979 59 49.6169 59 48.411V47.1091C59 46.3936 58.6326 45.7571 58.0658 45.3579V45.3579ZM42.9161 30.1356H40.6062L40.0313 28.1959H42.5726L42.9161 30.1356ZM43.1763 31.6048L43.5368 33.6408H41.6452L41.0417 31.6048H43.1763ZM43.7971 35.1101L44.3499 38.2318C44.1091 38.2986 43.8504 38.2956 43.5979 38.2188C43.1775 38.0911 42.8705 37.7877 42.7537 37.3807L42.0807 35.1101H43.7971ZM40.3752 24.1846C40.765 24.1163 41.1568 24.1986 41.4788 24.4161C41.8008 24.6337 42.0089 24.9568 42.0646 25.326C42.0655 25.3319 42.0664 25.3377 42.0675 25.3435L42.3125 26.7267H39.5958L38.9159 24.4329C39.2557 24.3775 39.7245 24.2984 40.3752 24.1846V24.1846ZM29.457 26.03L32.552 23.515C33.7566 25.159 35.7207 26.1425 37.8139 26.1874L37.9738 26.7266H37.9275C37.496 26.7266 37.1462 27.0555 37.1462 27.4612C37.1462 27.867 37.496 28.1958 37.9275 28.1958H38.4092L38.9842 30.1355H38.4764C38.045 30.1355 37.6952 30.4644 37.6952 30.8701C37.6952 31.2758 38.045 31.6047 38.4764 31.6047H39.4197L40.0232 33.6408H39.1014C38.67 33.6408 38.3202 33.9696 38.3202 34.3754C38.3202 34.7811 38.67 35.11 39.1014 35.11H40.4587L41.2469 37.769C41.4985 38.6465 42.1978 39.3372 43.1173 39.6167C43.2466 39.656 43.3773 39.6863 43.5087 39.7077L42.7475 40.7409C42.5018 41.0744 42.5902 41.5321 42.9448 41.7631C43.0805 41.8515 43.2356 41.8939 43.389 41.8939C43.6366 41.8939 43.8802 41.7835 44.0319 41.5776L45.7006 39.3127H49.8291C53.2707 39.3127 56.1125 41.7735 56.4692 44.9221H43.896C43.1428 44.9221 42.4097 44.6725 41.8311 44.2191L30.7242 35.2589C32.0423 34.269 32.8282 32.7333 32.8282 31.0536C32.8282 29.7652 32.3337 28.5207 31.4358 27.5492C30.8567 26.9226 30.135 26.4356 29.3334 26.1204C29.3593 26.1013 29.3853 26.0826 29.4112 26.0645C29.4269 26.0536 29.4422 26.0421 29.457 26.03V26.03ZM28.2106 27.3091C29.9809 27.7567 31.2657 29.2959 31.2657 31.0536C31.2657 32.3798 30.6025 33.5782 29.508 34.2778L26.4792 31.8344C26.4099 31.7785 26.3378 31.727 26.2638 31.68C26.691 30.0171 27.3934 28.4409 28.2106 27.3091V27.3091ZM57.4375 48.411C57.4375 48.8067 57.0951 49.1287 56.6743 49.1287H43.896C42.0856 49.1287 40.3255 48.5252 38.9459 47.4341L23.5633 35.0245C23.4082 34.8994 23.3144 34.725 23.2992 34.5335C23.2839 34.3419 23.349 34.1562 23.4825 34.0109L24.3871 33.0252C24.5377 32.8612 24.751 32.7769 24.9655 32.7769C25.1415 32.7769 25.3183 32.8337 25.4619 32.9494L40.8178 45.3375C40.8203 45.3395 40.8228 45.3416 40.8254 45.3436C41.6851 46.0193 42.7756 46.3914 43.896 46.3914H56.6743C57.0951 46.3914 57.4375 46.7134 57.4375 47.1091V48.411Z" fill="black"/>
</svg>
