<svg width="76" height="72" viewBox="0 0 76 72" fill="none" xmlns="http://www.w3.org/2000/svg">
<ellipse cx="38" cy="35.791" rx="38" ry="35.7313" fill="#E4E4E4"/>
<path d="M55.4729 19.1718C53.922 17.7617 51.8798 16.9851 49.7225 16.9851C47.5652 16.9851 45.523 17.7618 43.972 19.1719L43.868 19.2666C41.3435 21.562 40.6359 25.1189 42.1076 28.1172L44.7136 33.427V51.3111C44.7136 53.1204 46.2789 54.5922 48.2031 54.5922H50.9105C52.8345 54.5922 54.3998 53.1204 54.3998 51.3111V33.4348L57.1426 28.2013C58.7371 25.1587 58.0662 21.5299 55.4729 19.1718ZM52.8375 51.311C52.8375 52.3102 51.973 53.1232 50.9104 53.1232H48.203C47.1403 53.1232 46.2758 52.3103 46.2758 51.311V40.1222H49.7145V44.8565C49.7145 45.2621 50.0641 45.591 50.4956 45.591C50.927 45.591 51.2768 45.2621 51.2768 44.8565V40.1222H52.8374V51.311H52.8375ZM46.2758 38.6533V33.9824H47.4608C47.462 33.9824 47.4631 33.9825 47.4641 33.9825C47.4654 33.9825 47.4666 33.9824 47.4678 33.9824H51.873C51.8742 33.9824 51.8755 33.9825 51.8766 33.9825C51.8778 33.9825 51.8789 33.9824 51.88 33.9824H52.8374V38.6533H46.2758ZM55.7411 27.5521L53.141 32.5134H52.7979L53.4274 28.9616C53.4984 28.5615 53.2109 28.183 52.7853 28.1163C52.3598 28.0497 51.9573 28.3199 51.8863 28.7201L51.214 32.5134H50.3378V28.8408C50.3378 28.4352 49.9881 28.1063 49.5566 28.1063C49.1252 28.1063 48.7755 28.4352 48.7755 28.8408V32.5134H48.1268L47.4544 28.72C47.3835 28.3201 46.9809 28.0497 46.5554 28.1163C46.1298 28.183 45.8423 28.5614 45.9133 28.9617L46.5429 32.5134H45.9857L43.5259 27.5017C42.3323 25.0696 42.9062 22.1846 44.9541 20.3226L45.0581 20.2279C47.6737 17.8498 51.7713 17.8498 54.3867 20.2279C56.4903 22.1406 57.0346 25.084 55.7411 27.5521Z" fill="black"/>
<path d="M28.4674 40.497V37.2577C28.4674 36.6567 28.0812 36.1395 27.5301 35.9122V31.3736C27.5301 30.5599 27.0562 29.8157 26.2934 29.4313L23.7937 28.1719C23.0606 27.8026 22.1969 27.8217 21.4832 28.2236C20.7695 28.6252 20.3435 29.332 20.3435 30.1141V35.9122C19.7924 36.1394 19.4062 36.6566 19.4062 37.2577V40.4969C18.6177 40.5709 18 41.198 18 41.9586V52.3887C18 53.6037 19.0512 54.5922 20.3434 54.5922H27.53C28.8222 54.5922 29.8734 53.6037 29.8734 52.3887V41.9586C29.8735 41.1981 29.2558 40.571 28.4674 40.497ZM21.9058 30.1141C21.9058 29.7384 22.1715 29.5483 22.2856 29.4839C22.3998 29.4196 22.7036 29.2893 23.0558 29.4667L25.5555 30.7261C25.8098 30.8543 25.9676 31.1023 25.9676 31.3735V35.7886H21.9058V30.1141ZM20.9684 37.2577H21.1246H26.7489H26.9051V40.4896H20.9684V37.2577H20.9684ZM28.3112 52.3887C28.3112 52.7937 27.9608 53.1233 27.53 53.1233H26.1239V47.541C26.1239 47.1354 25.7742 46.8065 25.3427 46.8065C24.9113 46.8065 24.5615 47.1353 24.5615 47.541V53.1233H20.3434C19.9127 53.1233 19.5623 52.7938 19.5623 52.3887V41.9586H28.3112V52.3887Z" fill="black"/>
<path d="M25.895 44.2304C25.7496 44.0938 25.5489 44.0152 25.3427 44.0152C25.1372 44.0152 24.9357 44.0937 24.7904 44.2304C24.6451 44.3671 24.5615 44.5565 24.5615 44.7497C24.5615 44.9429 24.6451 45.1324 24.7904 45.269C24.9357 45.4056 25.1372 45.4843 25.3427 45.4843C25.5489 45.4843 25.7496 45.4057 25.895 45.269C26.0403 45.1324 26.1239 44.9429 26.1239 44.7497C26.1239 44.5565 26.0403 44.367 25.895 44.2304Z" fill="black"/>
<path d="M40.9658 35.0542H37.3725V27.8559H38.7014C39.1328 27.8559 39.4826 27.527 39.4826 27.1214C39.4826 26.7157 39.1329 26.3869 38.7014 26.3869H37.3725V25.5055H38.7014C39.1328 25.5055 39.4826 25.1766 39.4826 24.771C39.4826 24.3653 39.1329 24.0364 38.7014 24.0364H37.3725V23.155H38.7014C39.1328 23.155 39.4826 22.8262 39.4826 22.4205C39.4826 22.0149 39.1329 21.686 38.7014 21.686H37.3725V20.8046H38.7014C39.1328 20.8046 39.4826 20.4757 39.4826 20.0701C39.4826 19.6644 39.1329 19.3355 38.7014 19.3355H37.3725V18.4541H38.7014C39.1328 18.4541 39.4826 18.1253 39.4826 17.7196C39.4826 17.314 39.1329 16.9851 38.7014 16.9851H34.4814C34.05 16.9851 33.7002 17.314 33.7002 17.7196C33.7002 18.1253 34.0499 18.4541 34.4814 18.4541H35.8102V19.3355H34.4813C34.0499 19.3355 33.7002 19.6644 33.7002 20.0701C33.7002 20.4757 34.0498 20.8046 34.4813 20.8046H35.8102V21.686H34.4813C34.0499 21.686 33.7002 22.0149 33.7002 22.4205C33.7002 22.8262 34.0498 23.155 34.4813 23.155H35.8102V24.0364H34.4813C34.0499 24.0364 33.7002 24.3653 33.7002 24.771C33.7002 25.1766 34.0498 25.5055 34.4813 25.5055H35.8102V26.3869H34.4813C34.0499 26.3869 33.7002 26.7157 33.7002 27.1214C33.7002 27.527 34.0498 27.8559 34.4813 27.8559H35.8102V35.0542H32.217C31.7856 35.0542 31.4358 35.3831 31.4358 35.7887V43.9935C31.4358 47.6063 32.4884 51.149 34.48 54.2384C34.6216 54.4581 34.8748 54.5922 35.148 54.5922H38.0347C38.3079 54.5922 38.5612 54.458 38.7027 54.2384C40.6943 51.1489 41.7469 47.6063 41.7469 43.9935V35.7887C41.7469 35.383 41.3972 35.0542 40.9658 35.0542ZM40.1846 43.9934C40.1846 47.2005 39.2883 50.3482 37.5889 53.1232H35.5936C33.8943 50.3481 32.998 47.2005 32.998 43.9934V39.755H37.7052C38.1366 39.755 38.4864 39.4261 38.4864 39.0205C38.4864 38.6148 38.1367 38.2859 37.7052 38.2859H32.998V36.5231H40.1845V43.9934H40.1846Z" fill="black"/>
<path d="M51.048 46.9077C50.9027 46.7711 50.7012 46.6925 50.4958 46.6925C50.2903 46.6925 50.0888 46.771 49.9435 46.9077C49.7982 47.0444 49.7146 47.2338 49.7146 47.427C49.7146 47.6202 49.7982 47.8097 49.9435 47.9463C50.0888 48.0836 50.2903 48.1616 50.4958 48.1616C50.7012 48.1616 50.9027 48.0836 51.048 47.9463C51.1933 47.8097 51.2769 47.6209 51.2769 47.427C51.2769 47.2338 51.1933 47.0444 51.048 46.9077Z" fill="black"/>
</svg>
