<svg width="76" height="72" viewBox="0 0 76 72" fill="none" xmlns="http://www.w3.org/2000/svg">
<ellipse cx="38" cy="35.791" rx="38" ry="35.7313" fill="#E4E4E4"/>
<path d="M48.8334 22.9403C45.6172 22.9403 43 25.4013 43 28.4254C43 28.8586 43.3727 29.209 43.8334 29.209C44.294 29.209 44.6667 28.8586 44.6667 28.4254C44.6666 26.2652 46.5359 24.5075 48.8334 24.5075C49.294 24.5075 49.6667 24.157 49.6667 23.7239C49.6666 23.2908 49.294 22.9403 48.8334 22.9403Z" fill="black"/>
<path d="M28.4882 29.6681C27.8379 30.2788 27.8379 31.2735 28.4882 31.8842C28.8129 32.1895 29.2401 32.3426 29.6665 32.3426C30.0929 32.3426 30.5202 32.1895 30.8449 31.8842C31.4951 31.2735 31.4951 30.2788 30.8449 29.6681C30.1955 29.0575 29.1376 29.0575 28.4882 29.6681Z" fill="black"/>
<path d="M45.155 47.5558C45.4797 47.8611 45.907 48.0142 46.3334 48.0142C46.7598 48.0142 47.1871 47.8612 47.5118 47.5558C48.162 46.9451 48.162 45.9504 47.5118 45.3397C46.8623 44.729 45.8044 44.729 45.155 45.3397C44.5048 45.9504 44.5048 46.9452 45.155 47.5558Z" fill="black"/>
<path d="M55.3167 22.3295C53.0075 20.1582 49.6971 19.3163 46.4648 20.0847C42.5504 21.0116 39.8171 24.3951 39.6633 28.505C39.6474 28.9322 39.5031 29.3822 39.2743 29.837C34.6767 26.4301 30.1766 24.4851 27.1405 24.5084C25.8805 24.5413 24.8728 24.9041 24.1451 25.5883C23.4175 26.2725 23.0316 27.22 22.9966 28.4055C22.9296 30.7725 24.2935 33.9502 26.6796 37.3125C24.5932 37.6998 22.6675 38.6193 21.1676 40.0302C16.9432 44.0023 16.9432 50.4662 21.1676 54.4383C23.2799 56.4243 26.0547 57.4177 28.8295 57.4177C31.6042 57.4177 34.3791 56.4243 36.4913 54.4383C37.9925 53.0261 38.9708 51.2147 39.3821 49.2524C42.8724 51.4422 46.1762 52.7201 48.6722 52.7201C48.7341 52.7201 48.7951 52.7194 48.8562 52.7179C50.1162 52.6865 51.1239 52.3229 51.8507 51.6395C52.5784 50.9553 52.965 50.0078 52.9984 48.8239C53.0802 45.9596 50.9632 41.7372 47.3327 37.413C47.816 37.1982 48.2945 37.0626 48.7487 37.0477C53.1189 36.9031 56.7182 34.333 57.7039 30.6518C58.518 27.6118 57.6259 24.5008 55.3167 22.3295ZM35.3146 53.3261C31.7403 56.6869 25.9249 56.6869 22.3507 53.3261C18.7764 49.9653 18.7764 44.497 22.3507 41.1362C23.7917 39.7812 25.6928 38.9286 27.7426 38.7082C28.1292 39.2019 28.5276 39.6942 28.9546 40.1902C24.7978 40.0789 21.3319 43.3072 21.3326 47.2311C21.3326 51.1199 24.6969 54.2833 28.8326 54.2833C32.9683 54.2833 36.3326 51.1199 36.3326 47.2311C36.3326 47.1941 36.3221 47.1557 36.3214 47.1187C36.8487 47.5199 37.372 47.8928 37.8967 48.2561C37.6623 50.1837 36.7555 51.9705 35.3146 53.3261ZM34.3632 45.5554C34.5667 46.1331 34.666 46.6833 34.666 47.2312C34.666 50.2554 32.0488 52.7163 28.8326 52.7163C25.6165 52.7162 22.9993 50.2553 22.9993 47.2311C22.9993 44.207 25.6165 41.746 28.8327 41.746C29.4153 41.746 30.0005 41.8394 30.615 42.0307C31.1952 42.6375 31.7999 43.2428 32.4371 43.842C32.4371 43.842 32.4371 43.842 32.4371 43.8427C33.0742 44.4404 33.7179 45.0098 34.3632 45.5554ZM51.3302 48.7785C51.309 49.5482 51.0868 50.1359 50.6702 50.527C50.2551 50.918 49.6301 51.1269 48.8107 51.1468C46.4263 51.2226 42.94 49.7435 39.2798 47.2699C39.2694 47.2621 39.2657 47.2492 39.255 47.2419C38.3244 46.6149 37.4162 45.9401 36.5273 45.2366C36.4291 45.1582 36.331 45.0839 36.2331 45.0043C35.335 44.2811 34.458 43.5261 33.6153 42.734C32.7714 41.9401 31.9661 41.1133 31.1948 40.2659C31.1162 40.1802 31.0426 40.0946 30.9651 40.0088C30.2131 39.1693 29.4922 38.3107 28.8211 37.431C28.8138 37.4214 28.8006 37.4183 28.7928 37.4091C26.1698 33.9754 24.6031 30.7048 24.6675 28.4474C24.6895 27.6768 24.9117 27.0877 25.3275 26.6966C25.7434 26.3056 26.37 26.0967 27.1887 26.076C29.8607 25.9824 34.0934 27.9543 38.3828 31.1664C37.6971 31.996 36.8262 32.7832 35.9842 33.4114C35.0825 34.0856 34.7961 35.2877 35.3031 36.2703C35.7222 37.0814 36.4278 38.2423 37.41 39.1659C38.3923 40.0895 39.6268 40.7529 40.4895 41.147C40.8362 41.3054 41.2089 41.3812 41.5775 41.3812C42.3214 41.3812 43.0505 41.0736 43.5299 40.5066C44.1979 39.7151 45.035 38.8962 45.9171 38.2516C49.3317 42.2864 51.4025 46.2785 51.3302 48.7785ZM56.0853 30.2686C55.2828 33.266 52.31 35.3604 48.6894 35.4805C45.7841 35.5761 43.0066 38.6057 42.2246 39.5316C41.9902 39.8101 41.5662 39.8973 41.2171 39.7374C40.47 39.3961 39.4071 38.8276 38.5885 38.0577C37.7698 37.2879 37.1651 36.2886 36.8021 35.5861C36.6328 35.2578 36.7248 34.8599 37.021 34.6387C38.0057 33.9034 41.2276 31.2916 41.3293 28.5598C41.4571 25.1546 43.6845 22.36 46.8714 21.6055C47.5216 21.4517 48.1751 21.376 48.8188 21.376C50.8085 21.376 52.7079 22.096 54.1362 23.4382C56.0259 25.2159 56.755 27.7694 56.0853 30.2686Z" fill="black"/>
</svg>
