<svg width="76" height="72" viewBox="0 0 76 72" fill="none" xmlns="http://www.w3.org/2000/svg">
<ellipse cx="38" cy="35.791" rx="38" ry="35.7313" fill="#E4E4E4"/>
<path d="M52.2712 29.6074V22.51C52.2712 18.4301 49.2429 16.9851 46.3955 16.9851H29.4915C26.6441 16.9851 23.6158 18.4301 23.6158 22.51V29.6074C21.5367 30.1174 20 31.8599 20 33.9848V45.3747C20 48.7321 22.3955 50.0496 24.7458 50.1771V53.067C24.7458 53.917 25.4689 54.597 26.3729 54.597H28.0452C28.9492 54.597 29.6723 53.917 29.6723 53.067V50.1771H46.2599V53.067C46.2599 53.917 46.983 54.597 47.887 54.597H49.5593C50.4633 54.597 51.1864 53.917 51.1864 53.067V50.1771C54.6667 50.0071 55.9322 47.6271 55.9322 45.3747V33.9423C55.8418 31.8599 54.3051 30.0749 52.2712 29.6074ZM25.2429 22.51C25.2429 19.025 27.9096 18.4726 29.4915 18.4726H46.3955C47.9774 18.4726 50.6441 18.9825 50.6441 22.4675V29.4374C48.2034 29.6499 46.2599 31.5624 46.2599 33.9423V35.0048H29.6271V33.9423C29.6271 31.5624 27.6836 29.6499 25.2429 29.4374V22.51ZM46.2147 36.5348V41.8047H29.6271V36.5348H46.2147ZM28.0452 53.067H26.3729V50.1771H28.0452V53.067ZM49.5141 53.067H47.8418V50.1771H49.5141V53.067ZM54.3051 45.3747H54.2599C54.2599 46.8621 53.6723 48.6896 50.7345 48.6896H49.5141H47.8418H28.0452H26.3729H25.1525C23.5706 48.6896 21.6271 48.1371 21.6271 45.3747V33.9423C21.6271 32.2848 23.0734 30.9249 24.8362 30.9249C26.5989 30.9249 28.0452 32.2848 28.0452 33.9423V42.5697C28.0452 42.9947 28.4068 43.3347 28.8588 43.3347H47.0734C47.5254 43.3347 47.887 42.9947 47.887 42.5697V33.9423C47.887 32.2848 49.3333 30.9249 51.096 30.9249C52.8588 30.9249 54.3051 32.2848 54.3051 33.9423V45.3747V45.3747Z" fill="black"/>
</svg>
