<svg width="76" height="72" viewBox="0 0 76 72" fill="none" xmlns="http://www.w3.org/2000/svg">
<ellipse cx="38" cy="35.791" rx="38" ry="35.7313" fill="#E4E4E4"/>
<path d="M36.6098 26.2433C36.7733 26.6123 37.2361 26.7936 37.6293 26.64C38.0227 26.4864 38.215 26.0511 38.052 25.6806C37.8894 25.3114 37.4242 25.1303 37.0317 25.2839C36.6372 25.4383 36.4482 25.8726 36.6098 26.2433Z" fill="black"/>
<path d="M53.4815 43.6462H53.4558V43.1498C53.4558 39.6214 50.4004 36.7509 46.6448 36.7509C42.8892 36.7509 39.8338 39.6214 39.8338 43.1498V48.1981C39.8338 50.9163 37.4794 53.1278 34.5853 53.1278C32.4674 53.1278 30.5785 51.93 29.7619 50.1434C30.5898 49.7381 31.1568 48.9243 31.1568 47.9879V46.8515C32.5363 46.0361 33.4555 44.5938 33.4555 42.9527V39.8441C36.3139 39.4847 37.7441 37.2464 37.8085 37.1431C38.0009 36.8344 37.9288 36.4404 37.6378 36.2098L34.2045 33.4903L44.5331 30.188C46.412 29.5871 48.5238 30.061 49.9578 31.3367C50.756 32.0475 51.9723 32.8645 53.5841 33.2018C54.2391 33.3391 55.8794 33.6958 55.8794 32.626V19.3915C55.8794 18.5765 54.9228 18.6349 54.3227 18.695C52.7534 18.8506 51.3048 19.5032 50.0037 20.6408C48.5592 21.9057 46.4427 22.3631 44.5691 21.7484L32.5374 17.7976C31.3141 17.2724 29.9625 16.9851 28.5559 16.9851C23.3587 16.9851 19 21.0684 19 25.9624C19 26.9992 19.1887 27.9951 19.5344 28.9223C19.5444 28.9562 19.5566 28.9892 19.5714 29.021C20.327 30.9737 21.7844 32.6122 23.6557 33.6667V42.9527C23.6557 44.6069 24.5895 46.0595 25.9873 46.8712V47.9879C25.9873 49.2035 26.9425 50.2133 28.1847 50.3897C29.1545 52.8924 31.7077 54.597 34.5854 54.597C38.341 54.597 41.3964 51.7265 41.3964 48.1981V43.1498C41.3964 40.4316 43.7509 38.2201 46.6449 38.2201C49.539 38.2201 51.8934 40.4316 51.8934 43.1498V43.6462H51.8677C50.2254 43.6462 48.8892 44.9017 48.8892 46.4449V49.4562C48.8892 49.8619 49.239 50.1908 49.6705 50.1908H50.443V51.4419C50.443 51.8477 50.7927 52.1766 51.2242 52.1766C51.6557 52.1766 52.0055 51.8477 52.0055 51.4419V50.1908H53.2748V51.4419C53.2748 51.8477 53.6246 52.1766 54.0561 52.1766C54.4876 52.1766 54.8373 51.8477 54.8373 51.4419V50.1908H55.6788C56.1103 50.1908 56.4601 49.8619 56.4601 49.4562V46.4449C56.46 44.9017 55.1238 43.6462 53.4815 43.6462ZM33.4555 38.3577V34.818L36.0711 36.8899C35.608 37.3942 34.7355 38.133 33.4555 38.3577ZM50.4513 29.8058V22.1985C51.0072 21.8122 51.4797 21.3383 52.063 20.9835C52.7442 20.5692 53.512 20.2828 54.3169 20.1759V31.8354C53.4929 31.7208 52.7049 31.4219 52.0084 30.9955C51.442 30.6489 50.9861 30.1887 50.4513 29.8058V29.8058ZM21.4847 29.4601H24.5141C24.9455 29.4601 25.2953 29.1312 25.2953 28.7255C25.2953 28.3198 24.9455 27.9909 24.5141 27.9909H20.8591C20.7341 27.5731 20.6469 27.1407 20.6008 26.697H24.4369C24.8684 26.697 25.2181 26.3682 25.2181 25.9624C25.2181 25.5567 24.8684 25.2278 24.4369 25.2278H20.6008C20.6466 24.7871 20.733 24.3574 20.8568 23.9421H24.437C24.8684 23.9421 25.2182 23.6132 25.2182 23.2075C25.2182 22.8018 24.8684 22.4729 24.437 22.4729H21.4802C22.8199 20.0856 25.4887 18.4543 28.5559 18.4543C31.7595 18.4543 34.7174 20.3111 35.9438 23.0928C36.0884 23.4208 36.4566 23.598 36.8134 23.5329C36.8645 23.5236 36.9152 23.5094 36.965 23.4899C37.3636 23.3345 37.5527 22.9048 37.3876 22.53C37.0777 21.827 36.6716 21.159 36.1846 20.5514L44.0543 23.1355C45.6497 23.659 47.3613 23.6007 48.8888 23.022V28.9576C47.3595 28.3579 45.6384 28.2825 44.0301 28.7968L36.2553 31.2826C36.705 30.7069 37.0834 30.0794 37.3765 29.4202C37.5429 29.0459 37.3552 28.6156 36.957 28.4591C36.565 28.3051 36.099 28.4833 35.9344 28.8534C34.7429 31.5324 31.9157 33.3656 28.8308 33.4658C25.7969 33.5622 22.9045 31.9824 21.4847 29.4601V29.4601ZM25.2182 34.3748C27.358 35.1223 29.7524 35.1239 31.893 34.3769V39.1595V42.9527C31.893 44.1939 31.1208 45.269 30.0038 45.7764C29.1974 46.143 28.2462 46.1835 27.4056 45.8953C26.1302 45.4542 25.2182 44.3016 25.2182 42.9527V34.3748ZM27.5498 47.9879V47.4598C28.22 47.5911 28.9249 47.5891 29.5943 47.4533V47.988C29.5943 48.5173 29.1359 48.9479 28.5724 48.9479C28.0085 48.9478 27.5498 48.5172 27.5498 47.9879V47.9879ZM54.8975 48.7215H50.4516V46.4449C50.4516 45.7119 51.0868 45.1154 51.8676 45.1154H53.4815C54.2623 45.1154 54.8975 45.7119 54.8975 46.4449V48.7215Z" fill="black"/>
</svg>
